<svg xmlns="http://www.w3.org/2000/svg" viewBox="0 0 1920 1080"><defs><style>.cls-1{fill:#ffcf5f;stroke:#ffb315;stroke-miterlimit:10;stroke-width:3px;}</style></defs><g id="_5_star" data-name="5 star"><path class="cls-1" d="M401,372.3v16.13C401,506,358.61,532.52,274.9,532.52h0C396.75,533.16,401,648,401,692.51v0c0-89-7.42-160,144.09-160h0C425.36,532.52,401,492.26,401,388.43Z"/><path class="cls-1" d="M668,372.3v16.13C668,506,625.61,532.52,541.9,532.52h0C663.75,533.16,668,648,668,692.51v0c0-89-7.42-160,144.09-160h0C692.35,532.52,668,492.26,668,388.43Z"/><path class="cls-1" d="M921.21,372.3v16.13c0,117.6-42.38,144.09-126.08,144.09h0c121.84.64,126.08,115.49,126.08,160v0c0-89-7.42-160,144.09-160h0c-119.72,0-144.09-40.26-144.09-144.09Z"/><path class="cls-1" d="M1180.79,372.66v16.12c0,117.61-42.38,144.1-126.08,144.1h0c121.84.63,126.08,115.48,126.08,160v0c0-89-7.42-160,144.09-160h0c-119.72,0-144.09-40.26-144.09-144.1Z"/><path class="cls-1" d="M1425.9,372.3v16.13c0,117.6-42.38,144.09-126.09,144.09h0c121.85.64,126.09,115.49,126.09,160v0c0-89-7.42-160,144.09-160h0c-119.72,0-144.09-40.26-144.09-144.09Z"/></g></svg>