<svg id="_4_star" data-name="4 star" xmlns="http://www.w3.org/2000/svg" viewBox="0 0 1920 1080"><defs><style>.cls-1{fill:#ffcf5f;stroke:#ffb315;}.cls-1,.cls-2{stroke-miterlimit:10;stroke-width:3px;}.cls-2{fill:#b3b3b3;stroke:gray;}</style></defs><path class="cls-1" d="M401,332.53v16.13c0,117.6-42.38,144.09-126.09,144.09h0c121.85.63,126.09,115.49,126.09,160v0c0-89-7.42-160,144.09-160h0C425.36,492.75,401,452.49,401,348.66Z"/><path class="cls-1" d="M668,332.53v16.13c0,117.6-42.38,144.09-126.09,144.09h0c121.85.63,126.09,115.49,126.09,160v0c0-89-7.42-160,144.09-160h0C692.35,492.75,668,452.49,668,348.66Z"/><path class="cls-1" d="M921.21,332.53v16.13c0,117.6-42.38,144.09-126.08,144.09h0c121.84.63,126.08,115.49,126.08,160v0c0-89-7.42-160,144.09-160h0c-119.72,0-144.09-40.26-144.09-144.09Z"/><path class="cls-2" d="M1425.9,332.53v16.13c0,117.6-42.38,144.09-126.09,144.09h0c121.85.63,126.09,115.49,126.09,160v0c0-89-7.42-160,144.09-160h0c-119.72,0-144.09-40.26-144.09-144.09Z"/><path class="cls-1" d="M1180.79,332.88V349c0,117.61-42.38,144.1-126.08,144.1h0c121.84.63,126.08,115.48,126.08,160v0c0-89-7.42-160,144.09-160h0c-119.72,0-144.09-40.27-144.09-144.1Z"/></svg>